REM MD5 2f796e0696f51ea11825af548c858f29
FILE "Hiza no Ue no Partner - Kitty on Your Lap (Japan).bin" BINARY
  TRACK 01 MODE2/2352
    FLAGS DCP
    INDEX 01 00:00:00
  TRACK 02 AUDIO
    FLAGS DCP
    INDEX 00 44:39:51
    INDEX 01 44:41:51
  TRACK 03 AUDIO
    FLAGS DCP
    INDEX 00 45:11:74
    INDEX 01 45:13:74
REM LEADOUT 48:24:52
